<svg width="201" height="201" viewBox="0 0 201 201" fill="none" xmlns="http://www.w3.org/2000/svg">
<g clip-path="url(#clip0_1_2766)">
<path d="M201 100.5C201 120.377 195.106 139.808 184.063 156.335C173.02 172.862 157.324 185.743 138.96 193.35C120.596 200.957 100.389 202.947 80.8934 199.069C61.3983 195.191 43.4909 185.619 29.4358 171.564C15.3806 157.509 5.80888 139.602 1.93106 120.107C-1.94675 100.611 0.0434836 80.4043 7.65009 62.0403C15.2567 43.6763 28.138 27.9804 44.6652 16.9373C61.1923 5.89422 80.623 0 100.5 0C127.154 0 152.717 10.5884 171.564 29.4358C190.412 48.2832 201 73.8457 201 100.5Z" fill="#F7931A"/>
<path fill-rule="evenodd" clip-rule="evenodd" d="M71.4281 45.8918L94.5248 52.0771L99.6868 32.8359L111.235 35.9697L106.274 54.416L115.694 56.9468L120.664 38.2995L132.413 41.4424L127.352 60.1902C127.352 60.1902 146.538 64.4386 151.051 80.0435C155.565 95.6484 141.129 103.844 136.671 104.154C136.671 104.154 153.482 113.373 147.708 131.509C141.933 149.644 124.209 152.888 105.562 148.731L100.5 168.173L88.7506 165.03L93.9127 145.889L84.5936 143.349L79.4315 162.627L67.7735 159.493L72.9447 140.307L49.2358 133.912L55.211 120.646C55.211 120.646 61.8988 122.473 64.4296 123.076C66.9604 123.679 68.5867 121.048 69.2993 118.416C70.0119 115.785 80.7472 72.1771 81.7613 68.5865C82.7754 64.9959 82.3643 62.1911 78.1067 61.0856C73.8492 59.9801 68.0567 58.2533 68.0567 58.2533L71.4281 45.8918ZM94.7258 103.643L88.3303 129.069C88.3303 129.069 120.043 140.517 124.099 124.41C128.156 108.302 94.7258 103.643 94.7258 103.643ZM97.6677 91.5828L103.944 68.285C103.944 68.285 131.098 73.1456 127.754 86.1101C124.41 99.0746 108.403 94.1044 97.6677 91.5828Z" fill="white"/>
</g>
<defs>
<clipPath id="clip0_1_2766">
<rect width="201" height="201" fill="white"/>
</clipPath>
</defs>
</svg>
