<svg xmlns="http://www.w3.org/2000/svg" xmlns:xlink="http://www.w3.org/1999/xlink" width="500" zoomAndPan="magnify" viewBox="0 0 375 374.999991" height="500" preserveAspectRatio="xMidYMid meet" version="1.0"><defs><clipPath id="420c206f39"><path d="M 173.058594 177 L 190 177 L 190 198 L 173.058594 198 Z M 173.058594 177 " clip-rule="nonzero"/></clipPath><clipPath id="8bd683b79c"><path d="M 173.101562 172.160156 L 201.933594 172.160156 L 201.933594 184.238281 L 173.101562 184.238281 Z M 173.101562 172.160156 " clip-rule="nonzero"/></clipPath><clipPath id="1e27f66866"><path d="M 173.101562 190.738281 L 201.933594 190.738281 L 201.933594 202.835938 L 173.101562 202.835938 Z M 173.101562 190.738281 " clip-rule="nonzero"/></clipPath></defs><g clip-path="url(#420c206f39)"><path fill="#545454" d="M 186.949219 196.28125 C 182.097656 196.28125 178.164062 192.347656 178.164062 187.5 C 178.164062 182.648438 182.097656 178.714844 186.949219 178.714844 C 187.730469 178.714844 188.488281 178.816406 189.210938 179.007812 C 187.550781 177.867188 185.539062 177.195312 183.367188 177.195312 C 177.675781 177.195312 173.058594 181.8125 173.058594 187.503906 C 173.058594 193.199219 177.675781 197.8125 183.367188 197.8125 C 185.550781 197.8125 187.574219 197.136719 189.242188 195.976562 C 188.511719 196.175781 187.742188 196.28125 186.949219 196.28125 " fill-opacity="1" fill-rule="nonzero"/></g><g clip-path="url(#8bd683b79c)"><path fill="#545454" d="M 183.367188 175.296875 C 188.972656 175.296875 193.695312 179.074219 195.128906 184.222656 L 201.933594 184.222656 C 201.734375 183.300781 201.449219 182.402344 201.078125 181.527344 C 200.304688 179.699219 199.199219 178.058594 197.792969 176.652344 C 196.386719 175.246094 194.746094 174.140625 192.917969 173.367188 C 191.027344 172.566406 189.015625 172.160156 186.949219 172.160156 C 184.878906 172.160156 182.871094 172.566406 180.976562 173.367188 C 179.148438 174.140625 177.511719 175.246094 176.101562 176.652344 C 174.859375 177.894531 173.851562 179.320312 173.101562 180.894531 C 175.273438 177.527344 179.0625 175.296875 183.367188 175.296875 " fill-opacity="1" fill-rule="nonzero"/></g><g clip-path="url(#1e27f66866)"><path fill="#545454" d="M 183.367188 199.714844 C 179.074219 199.714844 175.300781 197.496094 173.125 194.148438 C 173.871094 195.703125 174.871094 197.113281 176.101562 198.34375 C 177.511719 199.75 179.148438 200.855469 180.976562 201.628906 C 182.871094 202.429688 184.878906 202.835938 186.949219 202.835938 C 189.015625 202.835938 191.027344 202.429688 192.917969 201.628906 C 194.746094 200.855469 196.386719 199.75 197.792969 198.34375 C 199.199219 196.9375 200.304688 195.296875 201.078125 193.46875 C 201.449219 192.59375 201.734375 191.695312 201.933594 190.773438 L 195.132812 190.773438 C 193.703125 195.929688 188.976562 199.714844 183.367188 199.714844 " fill-opacity="1" fill-rule="nonzero"/></g></svg>