<svg width="150" height="150" viewBox="0 0 150 150" fill="none" xmlns="http://www.w3.org/2000/svg">
<g clip-path="url(#clip0_1_2767)">
<path fill-rule="evenodd" clip-rule="evenodd" d="M74.7066 0C89.5402 0 104.041 4.39867 116.374 12.6398C128.708 20.8809 138.321 32.5943 143.998 46.2987C149.674 60.0032 151.159 75.0832 148.265 89.6318C145.372 104.18 138.229 117.544 127.74 128.033C117.251 138.522 103.887 145.665 89.3384 148.559C74.7898 151.453 59.7098 149.968 46.0053 144.291C32.3009 138.614 20.5875 129.001 12.3464 116.668C4.10528 104.334 -0.293396 89.8336 -0.293396 75C-0.293396 55.1088 7.60837 36.0322 21.6736 21.967C35.7388 7.90176 54.8154 0 74.7066 0V0Z" fill="white"/>
<path fill-rule="evenodd" clip-rule="evenodd" d="M74.707 16.1045L94.4388 45.5863L114.171 75.075L74.707 94.9568L35.2433 75L54.9752 45.5113L74.707 16.1045ZM74.707 102.9L37.432 83.0113L74.707 133.895L111.982 83.0113L74.707 102.9Z" fill="#343434"/>
<path fill-rule="evenodd" clip-rule="evenodd" d="M74.7066 16.1045L94.4384 45.5113L114.17 74.9999L74.7066 60.1022V16.1045Z" fill="#343434"/>
<path fill-rule="evenodd" clip-rule="evenodd" d="M74.7066 102.9L112.057 83.0117L74.7066 133.971V102.9Z" fill="#313131"/>
<path fill-rule="evenodd" clip-rule="evenodd" d="M74.7066 60.1021L114.17 74.9998L74.7066 94.8816V60.1021Z" fill="#151515"/>
<path fill-rule="evenodd" clip-rule="evenodd" d="M74.707 16.1045L54.9752 45.5113L35.2433 74.9999L74.707 60.1022V16.1045Z" fill="#8C8C8C"/>
<path fill-rule="evenodd" clip-rule="evenodd" d="M74.7066 102.9L37.4316 83.0117L74.7066 133.971V102.9Z" fill="#8A8A8A"/>
<path fill-rule="evenodd" clip-rule="evenodd" d="M74.707 60.1021L35.2433 74.9998L74.707 94.8816V60.1021Z" fill="#353535"/>
</g>
<defs>
<clipPath id="clip0_1_2767">
<rect width="150" height="150" fill="white"/>
</clipPath>
</defs>
</svg>
