<svg width="134" height="134" viewBox="0 0 134 134" fill="none" xmlns="http://www.w3.org/2000/svg">
<g clip-path="url(#clip0_1_2768)">
<path d="M67 134C104.003 134 134 104.003 134 67C134 29.9969 104.003 0 67 0C29.9969 0 0 29.9969 0 67C0 104.003 29.9969 134 67 134Z" fill="#172852"/>
<path d="M53.9689 29.9426C61.8146 27.008 70.6451 27.0013 78.6382 29.4133C89.0434 32.6427 97.827 40.4951 102.417 50.3509C103.683 53.1582 104.896 56.0861 105.016 59.2083C99.1671 55.8181 92.7552 53.6205 86.3299 51.6172C76.0521 47.9121 65.2919 45.3393 55.5635 40.2472C53.2989 38.8938 50.4112 37.5069 49.7948 34.6862C49.5469 32.2474 52.1264 30.8873 53.9689 29.9426Z" fill="#FFD83D"/>
<path d="M30.2842 53.6611C32.5555 47.4971 36.2807 41.7753 41.3392 37.5342C42.6256 48.1135 47.128 58.3377 54.565 66.0293C63.4827 75.2954 76.1859 80.9837 89.1102 80.7693C94.2424 80.9301 99.2607 79.7442 104.266 78.7861C99.3411 96.5813 79.8374 108.393 61.7675 105.553C50.8599 104.159 40.7898 97.7002 34.7129 88.5815C27.8588 78.5047 26.1302 65.1248 30.2842 53.6611Z" fill="#FFD83D"/>
<path d="M86.3294 51.6167C92.7547 53.62 99.1666 55.8176 105.016 59.2078L105.411 59.4155C105.954 63.4958 106.349 67.6565 105.625 71.7435C102.684 70.4973 100.299 68.3064 97.8065 66.3701C93.0093 62.3769 88.1116 57.8075 86.3294 51.6167Z" fill="#FF6F03"/>
</g>
<defs>
<clipPath id="clip0_1_2768">
<rect width="134" height="134" fill="white"/>
</clipPath>
</defs>
</svg>
